<?xml version="1.0" encoding="utf-8"?>
<!-- Generator: Adobe Illustrator 15.0.0, SVG Export Plug-In . SVG Version: 6.00 Build 0)  -->
<!DOCTYPE svg PUBLIC "-//W3C//DTD SVG 1.1//EN" "http://www.w3.org/Graphics/SVG/1.1/DTD/svg11.dtd">
<svg version="1.1" id="Layer_1" xmlns="http://www.w3.org/2000/svg" xmlns:xlink="http://www.w3.org/1999/xlink" x="0px" y="-150px"
	 width="500px" height="500px" viewBox="22 -77.5 500 500" enable-background="new 27 -77.5 500 500" xml:space="preserve">
<g id="accessory">
<path d="M344.908-67.181l36.994,13.4c7.254,4.03,15.018,7.112,22.059,11.561c14.049,7.914,26.594,18.255,37.895,29.698
	c6.348,6.506,12.25,13.488,17.059,21.217c8.611,12.388,16.314,25.382,23.293,38.74c3.082,6.596,6.199,13.175,9.246,19.778
	c4.83,12.222,10.338,24.502,11.281,37.792c0.496,5.191-0.045,10.396-0.648,15.548c8.66,4.678,14.695,13.299,17.068,22.752
	c1.014,4.344,0.748,8.842,1.34,13.244c2.039,17.298,4.033,34.609,6.08,51.91c1.113,7.365-0.115,14.766-1.838,21.93
	c-0.836,4.311-4.27,7.861-8.43,9.107c-10.389,2.406-21.148,3.031-31.773,2.355c-17.699-2.174-35.68-0.174-53.307-3.02
	c-45.068-2.51-90.045-7.166-134.568-14.58c-56.862-8.803-113.491-19.18-169.647-31.742c-5.837-1.182-11.201-3.939-17.02-5.201
	c-8.103-1.684-15.483-5.582-23.338-8.029c-11.546-3.762-22.517-9-33.371-14.375c-4.307-2.633-8.468-5.532-13.06-7.652
	c-3.615-1.967-8.042-3.144-10.415-6.775c-2.347-4.531-1.536-9.817-1.042-14.671l9.646-26.629c2.669-4.296,4.416-9.062,6.735-13.543
	c7.772-16.458,18.046-31.563,28.803-46.185c0.841-1.059,1.788-2.327,3.282-2.361c4.324-0.323,8.578,0.809,12.682,2.057
	c-1.152-3.987-2.15-8.148-1.437-12.315c1.235-11.646,8.797-21.129,15.921-29.897c10.804-14.147,23.752-26.582,38.148-37.031
	c11.019-9.416,23.821-16.453,36.746-22.87c5.438-3.451,11.761-5.009,17.47-7.924c42.847-17.358,91.154-20.03,135.947-9.046
	C336.783-69.021,340.77-67.754,344.908-67.181z"/>
<path fill="#417DA5" d="M329.271-56.744c5.961,1.831,12.135,2.963,17.951,5.27c8.162,3.224,16.693,5.539,24.494,9.618
	c12.307,5.204,24.531,10.874,35.512,18.57c5.119,3.904,9.592,8.577,14.26,12.984c7.576,7.419,15.762,14.231,22.758,22.235
	c10.584,12.158,19.828,25.491,27.484,39.682c2.584,5.362,5.041,10.775,7.607,16.152c4.031,8.661,4.99,18.268,6.529,27.576
	c1.01,6.552,2.281,13.059,2.863,19.664c-7.039-2.071-14.385-2.436-21.543-3.845c-10.881-2.629-21.953-4.322-32.846-6.875
	c3.863-11.351,2.125-23.903-2.084-34.907c-3.291-8.949-10.375-15.592-15.451-23.458c-5.346-8.032-11.27-15.668-16.984-23.448
	c-4.42-5.488-9.65-10.267-14.898-14.934c-9.455-7.76-21.037-12.214-31.053-19.135c-8.322-5.878-18.357-8.239-27.729-11.883
	c-5.916-2.203-11.891-5.033-18.367-4.753c-6.592,0.237-13.189,0.193-19.766-0.209c-20.107-1.077-40.381,0.2-60.089,4.42
	c-10.31,2.104-20.364,5.235-30.388,8.417c-6.707,2.204-13.561,4.436-19.368,8.578c-9.647,6.81-17.161,16.379-22.565,26.793
	c-3.498,7.268-6.63,14.983-7.015,23.127c-0.41,7.062,3.398,13.326,5.726,19.748c-3.6,0.107-7.115-0.647-10.62-1.35
	c-11.728-1.832-23.196-4.961-34.792-7.432c-4.49-0.949-8.988-1.902-13.326-3.434c3.682-6.981,6.505-14.392,10.491-21.223
	c9.521-16.511,21.675-31.642,36.44-43.768c13.271-12.775,28.817-23.025,45.249-31.268c10.295-4.644,21.009-8.36,31.877-11.426
	c15.796-3.936,32.047-5.775,48.307-5.993C288.521-63.239,309.248-61.788,329.271-56.744z"/>
<path fill="#488BB7" d="M309.889-35.763c6.703-0.348,12.865,2.588,18.969,4.863c9.668,3.765,20.033,6.174,28.598,12.303
	c10.309,7.213,22.26,11.814,31.98,19.916c5.395,4.877,10.768,9.871,15.297,15.619c5.852,8.152,11.922,16.151,17.389,24.574
	c5.191,8.249,12.469,15.193,15.803,24.598c4.268,11.562,5.967,24.775,1.879,36.768c-2.352,1.334-5.352,0.163-7.916-0.01
	c-27.041-5.529-54.055-11.121-81.098-16.617c-47.518-7.985-95.492-13.656-143.705-15.81c-1.21-0.227-2.706-0.064-3.625-1.04
	c-0.163-1.109-0.735-1.738-1.744-1.871c-5.083-0.927-10.275-0.957-15.432-1.312c-9.111-0.6-18.149-1.94-27.21-3.047
	c-2.944-0.425-5.964-0.731-8.703-1.955c-2.358-6.748-6.249-13.318-5.769-20.764c0.462-8.586,3.766-16.74,7.442-24.426
	c5.674-11.019,13.525-21.162,23.562-28.414c6.04-4.412,13.151-6.817,20.108-9.193c10.397-3.433,20.827-6.812,31.511-9.111
	c20.427-4.602,41.416-6.108,62.213-5.134C296.24-35.455,303.066-35.46,309.889-35.763z"/>
<path fill="#417DA5" d="M454.045,117.551c11.504,1.462,23.158,4.072,33.275,9.936c3.131,1.632,4.795,4.78,5.926,7.974
	c0.846-0.22,1.693-0.43,2.561-0.644c6.127,8.257,9.146,18.479,9.953,28.637c1.475,11.146,1.82,22.4,1.523,33.63
	c-0.238,10.188,3.467,19.834,4.652,29.852c-8.695,1.684-17.561,0.949-26.332,1.641c-9.549,0.658-19.121,0.73-28.674,1.129
	c-11.256,0.568-22.508-0.238-33.764-0.385c-9.174-0.07-18.316-0.967-27.488-1.018c-17.715-0.109-35.32-2.162-52.924-3.863
	c-35.561-4.07-71.041-8.996-106.133-16.119c-41.116-7.572-81.984-16.707-122.136-28.395c-4.99-1.053-9.714-2.973-14.538-4.592
	c-7.196-2.07-14.52-3.707-21.676-5.914c-9.696-3.49-19.345-7.107-29.077-10.471c-2.603-0.942-5.77-1.971-6.52-5.008
	c-1.997-6.979-3.306-14.375-2.119-21.633c1.281-8.586,6.205-15.923,10.115-23.477C56,98.481,61.94,88.371,65.966,77.418
	c2.743-5.511,5.046-11.212,7.112-16.997c8.304,1.268,16.762,1.417,24.992,3.214c8.413,1.924,16.742,4.244,25.069,6.516
	c4.575,1.18,9.363,0.975,13.978,1.91c5.434,1.033,10.97,1.289,16.404,2.292c-4.196,1.563-8.447,3.057-12.902,3.69
	c-10.294,1.593-20.847,5.029-28.443,12.463c-4.549,4.378-5.637,11.334-3.396,17.117c2.722,7.203,4.5,15.365,10.525,20.67
	c6.621,5.91,13.81,11.516,22.313,14.425c15.187,5.544,31.059,9.802,47.294,10.42c56.367,4.237,112.782,7.678,169.228,10.658
	c9.68,0.623,19.475,0.302,28.992,2.466c13.252,2.921,26.74,5.033,40.332,5.21c5.074-0.012,10.246,0.867,15.268-0.229
	c5.561-1.704,8.834-7.311,9.98-12.724c2.502-9.157,1.451-19.573-4.141-27.426c-3.684-4.955-8.113-9.305-12.365-13.768
	C442.152,117.74,448.098,117.217,454.045,117.551z"/>
<path fill="#488BB7" d="M411.732,113.661c9.68,1.896,19.535,2.457,29.359,3.189c4.354,4.713,8.896,9.303,12.656,14.547
	c5.703,8.314,6.662,19.426,3.951,29.234c-1.26,5.796-4.727,11.826-10.52,13.716c-5.223,1.232-10.578,0.359-15.844,0.436
	c-14.1-0.02-28.068-2.104-41.783-5.055c-9.848-2.19-20.014-1.724-30.051-2.267c-58.527-2.471-117.022-5.433-175.454-9.246
	c-16.839-0.453-33.254-4.801-48.942-10.528c-8.787-3.002-16.175-8.896-22.97-15.123c-6.185-5.59-7.926-14.283-10.659-21.94
	c-2.253-6.147-1.036-13.59,3.74-18.322c7.976-8.034,18.968-11.838,29.67-13.668c4.631-0.732,9.061-2.382,13.434-4.104
	c4.178-1.123,8.38,0.635,12.56,0.838c9.758,0.686,19.566-0.923,29.218-2.663c6.11,6.416,15.383,6.627,23.502,8.234
	C279.465,92.882,345.49,103.894,411.732,113.661z"/>
<path fill="#FFFFFF" d="M203.979,69.011c0.977,0.134,1.534,0.733,1.7,1.788C204.126,71.132,203.556,70.538,203.979,69.011z"/>
</g>
</svg>
